<svg width="175" height="44" viewBox="0 0 175 44" fill="none" xmlns="http://www.w3.org/2000/svg">
<path d="M58.47 26.9156C57.4098 26.9156 56.4597 26.7435 55.6198 26.3992C54.7799 26.055 54.1052 25.5455 53.5957 24.8708C53.1 24.1961 52.8384 23.3837 52.8108 22.4336H56.5699C56.625 22.9706 56.8108 23.3837 57.1275 23.6729C57.4442 23.9483 57.8573 24.086 58.3668 24.086C58.89 24.086 59.3031 23.9689 59.606 23.7348C59.909 23.487 60.0604 23.1496 60.0604 22.7228C60.0604 22.3648 59.9365 22.0687 59.6886 21.8347C59.4546 21.6006 59.1585 21.4078 58.8005 21.2564C58.4563 21.1049 57.9606 20.9328 57.3134 20.74C56.3771 20.4508 55.6129 20.1617 55.0208 19.8725C54.4287 19.5834 53.9193 19.1565 53.4924 18.592C53.0656 18.0274 52.8521 17.2908 52.8521 16.382C52.8521 15.0326 53.341 13.9792 54.3186 13.2219C55.2962 12.4508 56.5699 12.0653 58.1396 12.0653C59.7368 12.0653 61.0243 12.4508 62.0019 13.2219C62.9795 13.9792 63.5028 15.0395 63.5716 16.4026H59.7506C59.7231 15.9345 59.5509 15.5696 59.2343 15.308C58.9176 15.0326 58.5114 14.8949 58.0157 14.8949C57.5888 14.8949 57.2446 15.0119 56.983 15.246C56.7213 15.4663 56.5905 15.7899 56.5905 16.2168C56.5905 16.6849 56.8108 17.0498 57.2515 17.3114C57.6921 17.573 58.3805 17.8553 59.3169 18.1582C60.2532 18.4749 61.0105 18.7779 61.5888 19.067C62.1809 19.3562 62.6904 19.7761 63.1172 20.3269C63.5441 20.8777 63.7575 21.5868 63.7575 22.4543C63.7575 23.2805 63.5441 24.0309 63.1172 24.7056C62.7041 25.3803 62.0983 25.9173 61.2997 26.3166C60.501 26.7159 59.5578 26.9156 58.47 26.9156ZM65.2288 21.0085C65.2288 19.8106 65.4697 18.7641 65.9517 17.8691C66.4474 16.9741 67.129 16.2856 67.9964 15.8037C68.8777 15.3217 69.8828 15.0808 71.0119 15.0808C72.4577 15.0808 73.6625 15.4594 74.6264 16.2168C75.604 16.9741 76.2443 18.0412 76.5472 19.4181H72.7882C72.4715 18.5369 71.8587 18.0963 70.95 18.0963C70.3028 18.0963 69.7864 18.351 69.4009 18.8605C69.0154 19.3562 68.8226 20.0722 68.8226 21.0085C68.8226 21.9448 69.0154 22.6677 69.4009 23.1772C69.7864 23.6729 70.3028 23.9207 70.95 23.9207C71.8587 23.9207 72.4715 23.4801 72.7882 22.5989H76.5472C76.2443 23.9483 75.604 25.0085 74.6264 25.7796C73.6488 26.5507 72.4439 26.9362 71.0119 26.9362C69.8828 26.9362 68.8777 26.6953 67.9964 26.2133C67.129 25.7314 66.4474 25.0429 65.9517 24.1479C65.4697 23.2529 65.2288 22.2064 65.2288 21.0085ZM85.5208 15.1221C86.8426 15.1221 87.9029 15.5627 88.7015 16.444C89.5001 17.3114 89.8994 18.5094 89.8994 20.0378V26.771H86.3882V20.5128C86.3882 19.7417 86.1886 19.1428 85.7893 18.7159C85.39 18.2891 84.853 18.0756 84.1783 18.0756C83.5036 18.0756 82.9665 18.2891 82.5672 18.7159C82.1679 19.1428 81.9683 19.7417 81.9683 20.5128V26.771H78.4364V11.487H81.9683V16.7951C82.3263 16.2856 82.8151 15.8794 83.4347 15.5765C84.0543 15.2736 84.7497 15.1221 85.5208 15.1221ZM97.5999 26.9362C96.4708 26.9362 95.4518 26.6953 94.5431 26.2133C93.648 25.7314 92.9389 25.0429 92.4157 24.1479C91.9062 23.2529 91.6515 22.2064 91.6515 21.0085C91.6515 19.8243 91.9131 18.7848 92.4363 17.8897C92.9596 16.981 93.6756 16.2856 94.5844 15.8037C95.4931 15.3217 96.5121 15.0808 97.6412 15.0808C98.7703 15.0808 99.7892 15.3217 100.698 15.8037C101.607 16.2856 102.323 16.981 102.846 17.8897C103.369 18.7848 103.631 19.8243 103.631 21.0085C103.631 22.1927 103.362 23.2391 102.825 24.1479C102.302 25.0429 101.579 25.7314 100.657 26.2133C99.7479 26.6953 98.7289 26.9362 97.5999 26.9362ZM97.5999 23.8794C98.2746 23.8794 98.846 23.6316 99.3141 23.1359C99.7961 22.6402 100.037 21.9311 100.037 21.0085C100.037 20.086 99.803 19.3768 99.3348 18.8811C98.8804 18.3854 98.3159 18.1376 97.6412 18.1376C96.9527 18.1376 96.3813 18.3854 95.9269 18.8811C95.4725 19.3631 95.2453 20.0722 95.2453 21.0085C95.2453 21.9311 95.4656 22.6402 95.9062 23.1359C96.3606 23.6316 96.9252 23.8794 97.5999 23.8794ZM110.751 26.9362C109.622 26.9362 108.603 26.6953 107.694 26.2133C106.799 25.7314 106.09 25.0429 105.567 24.1479C105.057 23.2529 104.802 22.2064 104.802 21.0085C104.802 19.8243 105.064 18.7848 105.587 17.8897C106.11 16.981 106.826 16.2856 107.735 15.8037C108.644 15.3217 109.663 15.0808 110.792 15.0808C111.921 15.0808 112.94 15.3217 113.849 15.8037C114.758 16.2856 115.474 16.981 115.997 17.8897C116.52 18.7848 116.782 19.8243 116.782 21.0085C116.782 22.1927 116.513 23.2391 115.976 24.1479C115.453 25.0429 114.73 25.7314 113.808 26.2133C112.899 26.6953 111.88 26.9362 110.751 26.9362ZM110.751 23.8794C111.425 23.8794 111.997 23.6316 112.465 23.1359C112.947 22.6402 113.188 21.9311 113.188 21.0085C113.188 20.086 112.954 19.3768 112.486 18.8811C112.031 18.3854 111.467 18.1376 110.792 18.1376C110.104 18.1376 109.532 18.3854 109.078 18.8811C108.623 19.3631 108.396 20.0722 108.396 21.0085C108.396 21.9311 108.616 22.6402 109.057 23.1359C109.511 23.6316 110.076 23.8794 110.751 23.8794ZM122.187 11.487V26.771H118.655V11.487H122.187Z" fill="#026BFE"/>
<path d="M128.279 24.0447H132.905V26.771H124.747V12.2718H128.279V24.0447ZM145.454 20.8226C145.454 21.1531 145.433 21.4973 145.392 21.8553H137.399C137.454 22.5713 137.681 23.1221 138.08 23.5077C138.493 23.8794 138.996 24.0653 139.588 24.0653C140.469 24.0653 141.082 23.6935 141.426 22.95H145.185C144.992 23.7073 144.641 24.3889 144.132 24.9947C143.636 25.6006 143.01 26.0756 142.252 26.4199C141.495 26.7641 140.648 26.9362 139.712 26.9362C138.583 26.9362 137.578 26.6953 136.696 26.2133C135.815 25.7314 135.127 25.0429 134.631 24.1479C134.135 23.2529 133.887 22.2064 133.887 21.0085C133.887 19.8106 134.128 18.7641 134.61 17.8691C135.106 16.9741 135.795 16.2856 136.676 15.8037C137.557 15.3217 138.569 15.0808 139.712 15.0808C140.827 15.0808 141.819 15.3149 142.686 15.783C143.554 16.2512 144.228 16.919 144.71 17.7865C145.206 18.6539 145.454 19.666 145.454 20.8226ZM141.839 19.8932C141.839 19.2873 141.633 18.8054 141.22 18.4474C140.807 18.0894 140.29 17.9104 139.671 17.9104C139.079 17.9104 138.576 18.0825 138.163 18.4267C137.764 18.771 137.516 19.2598 137.419 19.8932H141.839ZM154.339 15.1221C155.689 15.1221 156.763 15.5627 157.561 16.444C158.374 17.3114 158.78 18.5094 158.78 20.0378V26.771H155.269V20.5128C155.269 19.7417 155.069 19.1428 154.67 18.7159C154.271 18.2891 153.734 18.0756 153.059 18.0756C152.384 18.0756 151.847 18.2891 151.448 18.7159C151.048 19.1428 150.849 19.7417 150.849 20.5128V26.771H147.317V15.246H150.849V16.7744C151.207 16.265 151.689 15.8656 152.295 15.5765C152.9 15.2736 153.582 15.1221 154.339 15.1221ZM160.532 20.9879C160.532 19.8037 160.752 18.7641 161.193 17.8691C161.647 16.9741 162.26 16.2856 163.031 15.8037C163.802 15.3217 164.663 15.0808 165.613 15.0808C166.37 15.0808 167.059 15.2391 167.678 15.5558C168.312 15.8725 168.807 16.2994 169.165 16.8364V11.487H172.697V26.771H169.165V25.1187C168.835 25.6694 168.36 26.1101 167.74 26.4405C167.134 26.771 166.425 26.9362 165.613 26.9362C164.663 26.9362 163.802 26.6953 163.031 26.2133C162.26 25.7176 161.647 25.0223 161.193 24.1273C160.752 23.2185 160.532 22.172 160.532 20.9879ZM169.165 21.0085C169.165 20.1273 168.918 19.4319 168.422 18.9224C167.94 18.413 167.348 18.1582 166.646 18.1582C165.943 18.1582 165.344 18.413 164.849 18.9224C164.367 19.4181 164.126 20.1066 164.126 20.9879C164.126 21.8691 164.367 22.5713 164.849 23.0946C165.344 23.604 165.943 23.8588 166.646 23.8588C167.348 23.8588 167.94 23.604 168.422 23.0946C168.918 22.5851 169.165 21.8897 169.165 21.0085Z" fill="#010028"/>
<path d="M56.8262 37.3996C57.0888 37.4486 57.3046 37.5798 57.4737 37.7934C57.6427 38.007 57.7273 38.2517 57.7273 38.5276C57.7273 38.7768 57.665 38.997 57.5404 39.1884C57.4203 39.3753 57.2445 39.5221 57.0131 39.6289C56.7818 39.7357 56.5081 39.7891 56.1922 39.7891H54.1832V35.1303H56.1054C56.4213 35.1303 56.6928 35.1815 56.9197 35.2838C57.1511 35.3862 57.3246 35.5286 57.4403 35.711C57.5604 35.8934 57.6205 36.1003 57.6205 36.3317C57.6205 36.6032 57.5471 36.8301 57.4002 37.0125C57.2579 37.1949 57.0665 37.324 56.8262 37.3996ZM55.1176 37.0526H55.9719C56.1944 37.0526 56.3657 37.0036 56.4859 36.9057C56.606 36.8034 56.6661 36.6588 56.6661 36.4719C56.6661 36.285 56.606 36.1404 56.4859 36.0381C56.3657 35.9357 56.1944 35.8845 55.9719 35.8845H55.1176V37.0526ZM56.0587 39.0282C56.2856 39.0282 56.4614 38.9748 56.586 38.868C56.715 38.7612 56.7795 38.6099 56.7795 38.4141C56.7795 38.2139 56.7128 38.0582 56.5793 37.9469C56.4458 37.8312 56.2656 37.7734 56.0387 37.7734H55.1176V39.0282H56.0587ZM62.0094 36.0914L59.7201 41.5378H58.7256L59.5266 39.6956L58.0448 36.0914H59.0927L60.0472 38.6744L61.015 36.0914H62.0094ZM66.5063 39.7891L65.4785 37.9736H65.0379V39.7891H64.1035V35.1303H65.8522C66.2126 35.1303 66.5197 35.1949 66.7733 35.3239C67.0269 35.4485 67.216 35.6198 67.3406 35.8378C67.4696 36.0514 67.5342 36.2917 67.5342 36.5587C67.5342 36.8657 67.4452 37.1438 67.2672 37.393C67.0892 37.6377 66.8245 37.8068 66.4729 37.9002L67.5876 39.7891H66.5063ZM65.0379 37.2728H65.8188C66.0725 37.2728 66.2616 37.2127 66.3862 37.0926C66.5108 36.968 66.5731 36.7967 66.5731 36.5787C66.5731 36.3651 66.5108 36.2005 66.3862 36.0848C66.2616 35.9646 66.0725 35.9046 65.8188 35.9046H65.0379V37.2728ZM68.139 37.9269C68.139 37.5531 68.2124 37.2216 68.3593 36.9324C68.5106 36.6432 68.713 36.4207 68.9667 36.265C69.2247 36.1092 69.5117 36.0314 69.8277 36.0314C70.1035 36.0314 70.3438 36.087 70.5485 36.1982C70.7576 36.3095 70.9245 36.4496 71.0491 36.6187V36.0914H71.9902V39.7891H71.0491V39.2484C70.9289 39.422 70.7621 39.5666 70.5485 39.6823C70.3394 39.7935 70.0969 39.8491 69.821 39.8491C69.5095 39.8491 69.2247 39.769 68.9667 39.6089C68.713 39.4487 68.5106 39.224 68.3593 38.9347C68.2124 38.6411 68.139 38.3051 68.139 37.9269ZM71.0491 37.9403C71.0491 37.7133 71.0046 37.5198 70.9156 37.3596C70.8266 37.1949 70.7064 37.0704 70.5552 36.9858C70.4039 36.8968 70.2415 36.8523 70.0679 36.8523C69.8944 36.8523 69.7342 36.8946 69.5874 36.9791C69.4405 37.0637 69.3204 37.1883 69.227 37.3529C69.138 37.5131 69.0935 37.7044 69.0935 37.9269C69.0935 38.1494 69.138 38.3452 69.227 38.5143C69.3204 38.6789 69.4405 38.8057 69.5874 38.8947C69.7387 38.9837 69.8988 39.0282 70.0679 39.0282C70.2415 39.0282 70.4039 38.9859 70.5552 38.9014C70.7064 38.8124 70.8266 38.6878 70.9156 38.5276C71.0046 38.363 71.0491 38.1672 71.0491 37.9403ZM73.8372 36.6254C73.9573 36.4563 74.122 36.3162 74.3311 36.2049C74.5447 36.0892 74.7872 36.0314 75.0586 36.0314C75.3745 36.0314 75.6593 36.1092 75.9129 36.265C76.171 36.4207 76.3735 36.6432 76.5203 36.9324C76.6716 37.2172 76.7472 37.5487 76.7472 37.9269C76.7472 38.3051 76.6716 38.6411 76.5203 38.9347C76.3735 39.224 76.171 39.4487 75.9129 39.6089C75.6593 39.769 75.3745 39.8491 75.0586 39.8491C74.7872 39.8491 74.5469 39.7935 74.3378 39.6823C74.1331 39.571 73.9662 39.4309 73.8372 39.2618V41.5511H72.9028V36.0914H73.8372V36.6254ZM75.7928 37.9269C75.7928 37.7044 75.7461 37.5131 75.6526 37.3529C75.5636 37.1883 75.4435 37.0637 75.2922 36.9791C75.1454 36.8946 74.9852 36.8523 74.8117 36.8523C74.6426 36.8523 74.4824 36.8968 74.3311 36.9858C74.1843 37.0704 74.0641 37.1949 73.9707 37.3596C73.8817 37.5242 73.8372 37.7178 73.8372 37.9403C73.8372 38.1627 73.8817 38.3563 73.9707 38.5209C74.0641 38.6856 74.1843 38.8124 74.3311 38.9014C74.4824 38.9859 74.6426 39.0282 74.8117 39.0282C74.9852 39.0282 75.1454 38.9837 75.2922 38.8947C75.4435 38.8057 75.5636 38.6789 75.6526 38.5143C75.7461 38.3496 75.7928 38.1538 75.7928 37.9269ZM79.5086 36.0381C79.789 36.0381 80.0382 36.1003 80.2562 36.2249C80.4742 36.3451 80.6433 36.5253 80.7634 36.7656C80.888 37.0014 80.9503 37.2862 80.9503 37.6199V39.7891H80.0159V37.7467C80.0159 37.453 79.9425 37.2283 79.7956 37.0726C79.6488 36.9124 79.4486 36.8323 79.195 36.8323C78.9369 36.8323 78.7322 36.9124 78.5809 37.0726C78.4341 37.2283 78.3607 37.453 78.3607 37.7467V39.7891H77.4262V34.85H78.3607V36.552C78.4808 36.3918 78.641 36.2672 78.8412 36.1782C79.0414 36.0848 79.2639 36.0381 79.5086 36.0381ZM81.5986 37.9269C81.5986 37.5531 81.672 37.2216 81.8189 36.9324C81.9702 36.6432 82.1726 36.4207 82.4262 36.265C82.6843 36.1092 82.9713 36.0314 83.2872 36.0314C83.5631 36.0314 83.8034 36.087 84.0081 36.1982C84.2172 36.3095 84.3841 36.4496 84.5087 36.6187V36.0914H85.4497V39.7891H84.5087V39.2484C84.3885 39.422 84.2217 39.5666 84.0081 39.6823C83.7989 39.7935 83.5564 39.8491 83.2806 39.8491C82.9691 39.8491 82.6843 39.769 82.4262 39.6089C82.1726 39.4487 81.9702 39.224 81.8189 38.9347C81.672 38.6411 81.5986 38.3051 81.5986 37.9269ZM84.5087 37.9403C84.5087 37.7133 84.4642 37.5198 84.3752 37.3596C84.2862 37.1949 84.166 37.0704 84.0147 36.9858C83.8635 36.8968 83.7011 36.8523 83.5275 36.8523C83.354 36.8523 83.1938 36.8946 83.047 36.9791C82.9001 37.0637 82.78 37.1883 82.6865 37.3529C82.5976 37.5131 82.5531 37.7044 82.5531 37.9269C82.5531 38.1494 82.5976 38.3452 82.6865 38.5143C82.78 38.6789 82.9001 38.8057 83.047 38.8947C83.1982 38.9837 83.3584 39.0282 83.5275 39.0282C83.7011 39.0282 83.8635 38.9859 84.0147 38.9014C84.166 38.8124 84.2862 38.6878 84.3752 38.5276C84.4642 38.363 84.5087 38.1672 84.5087 37.9403ZM89.7997 37.8602C89.7997 37.9937 89.7908 38.1138 89.773 38.2206H87.0699C87.0921 38.4876 87.1855 38.6967 87.3502 38.848C87.5148 38.9993 87.7173 39.0749 87.9575 39.0749C88.3046 39.0749 88.5516 38.9258 88.6984 38.6277H89.7062C89.5994 38.9837 89.3948 39.2774 89.0922 39.5087C88.7896 39.7357 88.4181 39.8491 87.9776 39.8491C87.6216 39.8491 87.3012 39.7713 87.0165 39.6155C86.7361 39.4553 86.5159 39.2306 86.3557 38.9414C86.2 38.6522 86.1221 38.3185 86.1221 37.9403C86.1221 37.5576 86.2 37.2216 86.3557 36.9324C86.5114 36.6432 86.7295 36.4207 87.0098 36.265C87.2901 36.1092 87.6127 36.0314 87.9776 36.0314C88.3291 36.0314 88.6428 36.107 88.9187 36.2583C89.199 36.4096 89.4148 36.6254 89.5661 36.9057C89.7218 37.1816 89.7997 37.4997 89.7997 37.8602ZM88.8319 37.5932C88.8274 37.3529 88.7407 37.1616 88.5716 37.0192C88.4025 36.8724 88.1956 36.7989 87.9509 36.7989C87.7195 36.7989 87.5237 36.8701 87.3635 37.0125C87.2078 37.1505 87.1121 37.344 87.0765 37.5932H88.8319ZM91.4161 34.85V39.7891H90.4817V34.85H91.4161ZM94.8641 35.8845V37.0526H96.4326V37.7934H94.8641V39.0282H96.6328V39.7891H93.9297V35.1237H96.6328V35.8845H94.8641ZM98.897 39.8491C98.5944 39.8491 98.323 39.7957 98.0827 39.6889C97.8424 39.5777 97.6511 39.4286 97.5087 39.2418C97.3708 39.0549 97.2951 38.848 97.2818 38.621H98.2229C98.2407 38.7634 98.3096 38.8813 98.4298 38.9748C98.5544 39.0682 98.7079 39.1149 98.8903 39.1149C99.0683 39.1149 99.2062 39.0794 99.3041 39.0082C99.4065 38.937 99.4576 38.8457 99.4576 38.7345C99.4576 38.6144 99.3953 38.5254 99.2707 38.4675C99.1506 38.4052 98.957 38.3385 98.6901 38.2673C98.4142 38.2006 98.1873 38.1316 98.0093 38.0604C97.8357 37.9892 97.6845 37.8802 97.5554 37.7333C97.4308 37.5865 97.3685 37.3885 97.3685 37.1393C97.3685 36.9346 97.4264 36.7478 97.5421 36.5787C97.6622 36.4096 97.8313 36.2761 98.0493 36.1782C98.2718 36.0803 98.5321 36.0314 98.8302 36.0314C99.2707 36.0314 99.6223 36.1426 99.8848 36.3651C100.147 36.5831 100.292 36.879 100.319 37.2528H99.4243C99.4109 37.106 99.3486 36.9903 99.2374 36.9057C99.1306 36.8167 98.986 36.7722 98.8035 36.7722C98.6345 36.7722 98.5032 36.8034 98.4097 36.8657C98.3208 36.928 98.2763 37.0147 98.2763 37.126C98.2763 37.2506 98.3386 37.3462 98.4631 37.413C98.5877 37.4753 98.7813 37.5398 99.0438 37.6065C99.3108 37.6733 99.531 37.7422 99.7046 37.8134C99.8781 37.8846 100.027 37.9959 100.152 38.1472C100.281 38.294 100.348 38.4898 100.352 38.7345C100.352 38.9481 100.292 39.1394 100.172 39.3085C100.056 39.4776 99.887 39.6111 99.6645 39.709C99.4465 39.8024 99.1907 39.8491 98.897 39.8491ZM103.308 39.7891L102.053 38.2139V39.7891H101.119V34.85H102.053V37.6599L103.295 36.0914H104.51L102.881 37.9469L104.523 39.7891H103.308ZM104.776 37.9269C104.776 37.5531 104.85 37.2216 104.997 36.9324C105.148 36.6432 105.35 36.4207 105.604 36.265C105.862 36.1092 106.149 36.0314 106.465 36.0314C106.741 36.0314 106.981 36.087 107.186 36.1982C107.395 36.3095 107.562 36.4496 107.687 36.6187V36.0914H108.628V39.7891H107.687V39.2484C107.566 39.422 107.4 39.5666 107.186 39.6823C106.977 39.7935 106.734 39.8491 106.458 39.8491C106.147 39.8491 105.862 39.769 105.604 39.6089C105.35 39.4487 105.148 39.224 104.997 38.9347C104.85 38.6411 104.776 38.3051 104.776 37.9269ZM107.687 37.9403C107.687 37.7133 107.642 37.5198 107.553 37.3596C107.464 37.1949 107.344 37.0704 107.193 36.9858C107.041 36.8968 106.879 36.8523 106.705 36.8523C106.532 36.8523 106.372 36.8946 106.225 36.9791C106.078 37.0637 105.958 37.1883 105.864 37.3529C105.775 37.5131 105.731 37.7044 105.731 37.9269C105.731 38.1494 105.775 38.3452 105.864 38.5143C105.958 38.6789 106.078 38.8057 106.225 38.8947C106.376 38.9837 106.536 39.0282 106.705 39.0282C106.879 39.0282 107.041 38.9859 107.193 38.9014C107.344 38.8124 107.464 38.6878 107.553 38.5276C107.642 38.363 107.687 38.1672 107.687 37.9403ZM110.475 34.85V39.7891H109.54V34.85H110.475ZM111.158 37.9269C111.158 37.5531 111.231 37.2216 111.378 36.9324C111.529 36.6432 111.732 36.4207 111.985 36.265C112.243 36.1092 112.53 36.0314 112.846 36.0314C113.122 36.0314 113.362 36.087 113.567 36.1982C113.776 36.3095 113.943 36.4496 114.068 36.6187V36.0914H115.009V39.7891H114.068V39.2484C113.947 39.422 113.781 39.5666 113.567 39.6823C113.358 39.7935 113.115 39.8491 112.84 39.8491C112.528 39.8491 112.243 39.769 111.985 39.6089C111.732 39.4487 111.529 39.224 111.378 38.9347C111.231 38.6411 111.158 38.3051 111.158 37.9269ZM114.068 37.9403C114.068 37.7133 114.023 37.5198 113.934 37.3596C113.845 37.1949 113.725 37.0704 113.574 36.9858C113.422 36.8968 113.26 36.8523 113.086 36.8523C112.913 36.8523 112.753 36.8946 112.606 36.9791C112.459 37.0637 112.339 37.1883 112.246 37.3529C112.157 37.5131 112.112 37.7044 112.112 37.9269C112.112 38.1494 112.157 38.3452 112.246 38.5143C112.339 38.6789 112.459 38.8057 112.606 38.8947C112.757 38.9837 112.917 39.0282 113.086 39.0282C113.26 39.0282 113.422 38.9859 113.574 38.9014C113.725 38.8124 113.845 38.6878 113.934 38.5276C114.023 38.363 114.068 38.1672 114.068 37.9403ZM116.856 36.6321C116.976 36.4541 117.141 36.3095 117.35 36.1982C117.563 36.087 117.806 36.0314 118.077 36.0314C118.393 36.0314 118.678 36.1092 118.931 36.265C119.19 36.4207 119.392 36.6432 119.539 36.9324C119.69 37.2172 119.766 37.5487 119.766 37.9269C119.766 38.3051 119.69 38.6411 119.539 38.9347C119.392 39.224 119.19 39.4487 118.931 39.6089C118.678 39.769 118.393 39.8491 118.077 39.8491C117.801 39.8491 117.559 39.7957 117.35 39.6889C117.145 39.5777 116.98 39.4353 116.856 39.2618V39.7891H115.921V34.85H116.856V36.6321ZM118.811 37.9269C118.811 37.7044 118.765 37.5131 118.671 37.3529C118.582 37.1883 118.462 37.0637 118.311 36.9791C118.164 36.8946 118.004 36.8523 117.83 36.8523C117.661 36.8523 117.501 36.8968 117.35 36.9858C117.203 37.0704 117.083 37.1949 116.989 37.3596C116.9 37.5242 116.856 37.7178 116.856 37.9403C116.856 38.1627 116.9 38.3563 116.989 38.5209C117.083 38.6856 117.203 38.8124 117.35 38.9014C117.501 38.9859 117.661 39.0282 117.83 39.0282C118.004 39.0282 118.164 38.9837 118.311 38.8947C118.462 38.8057 118.582 38.6789 118.671 38.5143C118.765 38.3496 118.811 38.1538 118.811 37.9269ZM123.882 37.8602C123.882 37.9937 123.873 38.1138 123.855 38.2206H121.152C121.175 38.4876 121.268 38.6967 121.433 38.848C121.597 38.9993 121.8 39.0749 122.04 39.0749C122.387 39.0749 122.634 38.9258 122.781 38.6277H123.789C123.682 38.9837 123.477 39.2774 123.175 39.5087C122.872 39.7357 122.5 39.8491 122.06 39.8491C121.704 39.8491 121.384 39.7713 121.099 39.6155C120.819 39.4553 120.598 39.2306 120.438 38.9414C120.282 38.6522 120.205 38.3185 120.205 37.9403C120.205 37.5576 120.282 37.2216 120.438 36.9324C120.594 36.6432 120.812 36.4207 121.092 36.265C121.373 36.1092 121.695 36.0314 122.06 36.0314C122.412 36.0314 122.725 36.107 123.001 36.2583C123.281 36.4096 123.497 36.6254 123.648 36.9057C123.804 37.1816 123.882 37.4997 123.882 37.8602ZM122.914 37.5932C122.91 37.3529 122.823 37.1616 122.654 37.0192C122.485 36.8724 122.278 36.7989 122.033 36.7989C121.802 36.7989 121.606 36.8701 121.446 37.0125C121.29 37.1505 121.195 37.344 121.159 37.5932H122.914ZM125.499 36.6654C125.619 36.4697 125.774 36.3162 125.966 36.2049C126.162 36.0937 126.384 36.0381 126.633 36.0381V37.0192H126.386C126.093 37.0192 125.87 37.0882 125.719 37.2261C125.572 37.364 125.499 37.6043 125.499 37.9469V39.7891H124.564V36.0914H125.499V36.6654Z" fill="#010028"/>
<path d="M34.8015 11.5717V5.21141C34.8015 4.64912 34.5782 4.10987 34.1806 3.71227C33.783 3.31468 33.2437 3.09131 32.6814 3.09131H5.1201C4.55782 3.09131 4.01856 3.31468 3.62096 3.71227C3.22337 4.10987 3 4.64912 3 5.21141V30.6526C3 31.2149 3.22337 31.7542 3.62096 32.1518C4.01856 32.5494 4.55782 32.7727 5.1201 32.7727H19.9608M29.9404 27.9116L34.1806 32.1518L42.661 23.6714" stroke="url(#paint0_linear_49_186)" stroke-width="4.4496" stroke-linecap="round" stroke-linejoin="round"/>
<path d="M26.5647 12.4854L18.7941 7.98682L11.0235 12.4854L18.7941 16.9849L26.5647 12.4854ZM10.1113 14.0702V23.0674L17.8801 27.565V18.5679L10.1113 14.0702ZM19.708 27.5641L27.4768 23.0665V14.0702L19.708 18.567V27.5641Z" fill="url(#paint1_linear_49_186)"/>
<defs>
<linearGradient id="paint0_linear_49_186" x1="22.8305" y1="3.09131" x2="22.8305" y2="32.7727" gradientUnits="userSpaceOnUse">
<stop stop-color="#158DFE" stop-opacity="0.75"/>
<stop offset="1" stop-color="#0067FE"/>
</linearGradient>
<linearGradient id="paint1_linear_49_186" x1="18.7941" y1="7.98682" x2="18.7941" y2="27.565" gradientUnits="userSpaceOnUse">
<stop stop-color="#158DFE" stop-opacity="0.7"/>
<stop offset="1" stop-color="#0067FE"/>
</linearGradient>
</defs>
</svg>
